<mxfile host="app.diagrams.net" modified="2023-12-21T08:41:59.494Z" agent="Mozilla/5.0 (Macintosh; Intel Mac OS X 10_15_7) AppleWebKit/605.1.15 (KHTML, like Gecko) Version/17.0 Safari/605.1.15" version="22.1.11" etag="KiSiuOpEvWhju1xpjmd1" type="github">
  <diagram name="Page-1" id="nJLILdoU9eI7ubcwgfBG">
    <mxGraphModel>
      <root>
        <mxCell id="0" />
        <mxCell id="1" parent="0" />
      </root>
    </mxGraphModel>
  </diagram>
</mxfile>
